<?xml version="1.0" encoding="UTF-8" standalone="no"?>
<!-- Created with Inkscape (http://www.inkscape.org/) -->

<svg
   width="107.10788mm"
   height="64.264732mm"
   viewBox="0 0 107.10788 64.264732"
   version="1.1"
   id="svg5"
   xml:space="preserve"
   xmlns:inkscape="http://www.inkscape.org/namespaces/inkscape"
   xmlns:sodipodi="http://sodipodi.sourceforge.net/DTD/sodipodi-0.dtd"
   xmlns="http://www.w3.org/2000/svg"
   xmlns:svg="http://www.w3.org/2000/svg"><sodipodi:namedview
     id="namedview7"
     pagecolor="#ffffff"
     bordercolor="#000000"
     borderopacity="0.25"
     inkscape:showpageshadow="2"
     inkscape:pageopacity="0.0"
     inkscape:pagecheckerboard="0"
     inkscape:deskcolor="#d1d1d1"
     inkscape:document-units="mm"
     showgrid="false" /><defs
     id="defs2"><clipPath
       clipPathUnits="userSpaceOnUse"
       id="clipPath148"><path
         d="M 0,792 H 612 V 0 H 0 Z"
         id="path146" /></clipPath></defs><g
     id="g142"
     transform="matrix(0.35277776,0,0,-0.35277778,-54.96875,172.29214)"><g
       id="g144"
       clip-path="url(#clipPath148)"><path
         d="m 262.625,450 h -55.5 c -11.875,0 -12.75,-13.375 -12.75,-13.375 V 386.75 c 0,-11.375 12.5,-13.5 12.5,-13.5 H 304.5 v 44.25 c 0,8.25 11,8.25 11,8.25 10.25,0 11.25,-8.5 11.25,-8.5 V 373.5 h 31.125 v 44.125 c 0,7.625 10.875,8.5 10.875,8.5 9.125,0 11.625,-8.625 11.625,-8.625 V 363.375 H 365.25 l 30.5,-18.375 30.125,18.375 h -15 v 72.875 c -0.125,11.5 -12.375,13.5 -12.375,13.5 h -125 v -51.5 l -45,0.125 c -2.75,0 -3.25,3 -3.25,3 V 423 c 0,2.5 2.75,3.667 2.75,3.667 h 34.667 v 23 z M 172.5,350.5 v 100 c 0,0 125.5,58 266.5,0 v -101 c 0,0 -125,-62.5 -266.5,1"
         style="fill:#ff0000;fill-opacity:1;fill-rule:nonzero;stroke:none"
         id="path150" /><path
         d="m 202.477,364.141 2.328,-0.704 c -0.157,-0.653 -0.403,-1.198 -0.739,-1.636 -0.336,-0.438 -0.753,-0.768 -1.252,-0.99 -0.498,-0.223 -1.132,-0.334 -1.902,-0.334 -0.934,0 -1.697,0.135 -2.289,0.407 -0.592,0.271 -1.103,0.749 -1.533,1.432 -0.43,0.684 -0.645,1.56 -0.645,2.626 0,1.422 0.379,2.515 1.135,3.28 0.757,0.763 1.827,1.145 3.211,1.145 1.083,0 1.935,-0.219 2.554,-0.656 0.62,-0.438 1.081,-1.109 1.382,-2.016 l -2.344,-0.523 c -0.082,0.263 -0.168,0.454 -0.258,0.576 -0.149,0.203 -0.331,0.36 -0.546,0.47 -0.215,0.11 -0.455,0.165 -0.722,0.165 -0.602,0 -1.063,-0.242 -1.384,-0.728 -0.243,-0.359 -0.364,-0.924 -0.364,-1.694 0,-0.954 0.145,-1.607 0.434,-1.962 0.289,-0.353 0.694,-0.53 1.218,-0.53 0.508,0 0.891,0.142 1.151,0.427 0.259,0.287 0.447,0.701 0.565,1.245"
         style="fill:#ffffff;fill-opacity:1;fill-rule:nonzero;stroke:none"
         id="path152" /><path
         d="m 206.54,369.219 h 7.117 v -1.836 h -4.453 v -1.367 h 4.125 v -1.75 h -4.125 v -1.696 h 4.578 v -1.945 h -7.242 z"
         style="fill:#ffffff;fill-opacity:1;fill-rule:nonzero;stroke:none"
         id="path154" /><path
         d="m 215.686,369.219 h 2.482 l 3.236,-4.757 v 4.757 h 2.5 v -8.594 h -2.5 l -3.218,4.731 v -4.731 h -2.5 z"
         style="fill:#ffffff;fill-opacity:1;fill-rule:nonzero;stroke:none"
         id="path156" /><path
         d="m 225.521,369.219 h 8.07 v -2.125 h -2.711 v -6.469 h -2.656 v 6.469 h -2.703 z"
         style="fill:#ffffff;fill-opacity:1;fill-rule:nonzero;stroke:none"
         id="path158" /><path
         d="m 237.939,365.742 h 1.124 c 0.122,0 0.357,0.039 0.706,0.117 0.176,0.036 0.32,0.124 0.432,0.269 0.112,0.144 0.168,0.31 0.168,0.497 0,0.276 -0.088,0.489 -0.265,0.637 -0.176,0.148 -0.508,0.222 -0.994,0.222 h -1.171 z m -2.664,-5.117 v 8.594 h 4.427 c 0.821,0 1.449,-0.071 1.882,-0.211 0.435,-0.141 0.784,-0.402 1.05,-0.781 0.266,-0.381 0.399,-0.845 0.399,-1.392 0,-0.477 -0.102,-0.888 -0.306,-1.232 -0.204,-0.346 -0.484,-0.626 -0.841,-0.841 -0.228,-0.137 -0.54,-0.25 -0.936,-0.34 0.316,-0.106 0.546,-0.212 0.69,-0.318 0.097,-0.071 0.238,-0.222 0.423,-0.454 0.186,-0.232 0.31,-0.411 0.372,-0.536 l 1.294,-2.489 h -2.999 l -1.422,2.629 c -0.181,0.341 -0.341,0.561 -0.482,0.664 -0.192,0.133 -0.409,0.199 -0.652,0.199 h -0.235 v -3.492 z"
         style="fill:#ffffff;fill-opacity:1;fill-rule:nonzero;stroke:none"
         id="path160" /><path
         d="m 249.756,363.906 -0.945,3.087 -0.937,-3.087 z m 0.554,-1.859 h -3.01 l -0.423,-1.422 h -2.71 l 3.223,8.594 h 2.906 l 3.222,-8.594 h -2.779 z"
         style="fill:#ffffff;fill-opacity:1;fill-rule:nonzero;stroke:none"
         id="path162" /><path
         d="m 254.824,369.219 h 2.656 v -6.477 h 4.141 v -2.117 h -6.797 z"
         style="fill:#ffffff;fill-opacity:1;fill-rule:nonzero;stroke:none"
         id="path164" /><path
         d="m 267.71,369.219 h 3.493 l 1.345,-5.231 1.341,5.231 h 3.486 v -8.594 h -2.172 v 6.551 l -1.679,-6.551 h -1.966 l -1.676,6.551 v -6.551 h -2.172 z"
         style="fill:#ffffff;fill-opacity:1;fill-rule:nonzero;stroke:none"
         id="path166" /><path
         d="m 284.246,363.906 -0.945,3.087 -0.938,-3.087 z m 0.554,-1.859 h -3.009 l -0.424,-1.422 h -2.71 l 3.222,8.594 h 2.908 l 3.221,-8.594 h -2.779 z"
         style="fill:#ffffff;fill-opacity:1;fill-rule:nonzero;stroke:none"
         id="path168" /><path
         d="m 292.001,367.273 v -4.695 h 0.651 c 0.556,0 0.95,0.062 1.185,0.185 0.234,0.123 0.418,0.338 0.551,0.644 0.133,0.307 0.199,0.805 0.199,1.492 0,0.911 -0.148,1.535 -0.445,1.871 -0.297,0.335 -0.79,0.503 -1.478,0.503 z m -2.656,1.946 h 3.945 c 0.777,0 1.405,-0.106 1.884,-0.317 0.478,-0.211 0.874,-0.513 1.186,-0.909 0.313,-0.394 0.54,-0.853 0.681,-1.377 0.14,-0.524 0.21,-1.079 0.21,-1.665 0,-0.918 -0.104,-1.631 -0.313,-2.137 -0.209,-0.505 -0.5,-0.929 -0.871,-1.272 -0.371,-0.342 -0.769,-0.569 -1.195,-0.683 -0.582,-0.156 -1.11,-0.234 -1.582,-0.234 h -3.945 z"
         style="fill:#ffffff;fill-opacity:1;fill-rule:nonzero;stroke:none"
         id="path170" /><path
         d="m 299.096,369.219 h 7.117 v -1.836 h -4.453 v -1.367 h 4.125 v -1.75 h -4.125 v -1.696 h 4.578 v -1.945 h -7.242 z"
         style="fill:#ffffff;fill-opacity:1;fill-rule:nonzero;stroke:none"
         id="path172" /><path
         d="m 308.327,369.219 h 2.664 v -8.594 h -2.664 z"
         style="fill:#ffffff;fill-opacity:1;fill-rule:nonzero;stroke:none"
         id="path174" /><path
         d="m 316.047,365.742 h 1.124 c 0.121,0 0.356,0.039 0.706,0.117 0.177,0.036 0.32,0.124 0.433,0.269 0.111,0.144 0.167,0.31 0.167,0.497 0,0.276 -0.088,0.489 -0.265,0.637 -0.177,0.148 -0.508,0.222 -0.994,0.222 h -1.171 z m -2.664,-5.117 v 8.594 h 4.428 c 0.82,0 1.448,-0.071 1.881,-0.211 0.434,-0.141 0.785,-0.402 1.05,-0.781 0.266,-0.381 0.399,-0.845 0.399,-1.392 0,-0.477 -0.102,-0.888 -0.306,-1.232 -0.204,-0.346 -0.484,-0.626 -0.842,-0.841 -0.227,-0.137 -0.539,-0.25 -0.935,-0.34 0.316,-0.106 0.546,-0.212 0.69,-0.318 0.097,-0.071 0.238,-0.222 0.424,-0.454 0.184,-0.232 0.308,-0.411 0.371,-0.536 l 1.293,-2.489 h -2.998 l -1.423,2.629 c -0.18,0.341 -0.34,0.561 -0.481,0.664 -0.192,0.133 -0.41,0.199 -0.652,0.199 h -0.235 v -3.492 z"
         style="fill:#ffffff;fill-opacity:1;fill-rule:nonzero;stroke:none"
         id="path176" /><path
         d="m 323.134,369.219 h 7.117 v -1.836 h -4.453 v -1.367 h 4.125 v -1.75 h -4.125 v -1.696 h 4.578 v -1.945 h -7.242 z"
         style="fill:#ffffff;fill-opacity:1;fill-rule:nonzero;stroke:none"
         id="path178" /><path
         d="m 332.279,369.219 h 2.483 l 3.236,-4.757 v 4.757 h 2.5 v -8.594 h -2.5 l -3.219,4.731 v -4.731 h -2.5 z"
         style="fill:#ffffff;fill-opacity:1;fill-rule:nonzero;stroke:none"
         id="path180" /><path
         d="m 342.255,363.467 2.523,0.158 c 0.055,-0.411 0.166,-0.724 0.334,-0.938 0.274,-0.349 0.663,-0.523 1.171,-0.523 0.379,0 0.67,0.089 0.875,0.267 0.205,0.178 0.308,0.384 0.308,0.619 0,0.222 -0.098,0.422 -0.292,0.598 -0.195,0.176 -0.649,0.342 -1.36,0.498 -1.164,0.262 -1.993,0.611 -2.489,1.044 -0.5,0.435 -0.75,0.988 -0.75,1.661 0,0.442 0.128,0.859 0.384,1.253 0.256,0.392 0.641,0.701 1.154,0.926 0.513,0.225 1.217,0.337 2.112,0.337 1.097,0 1.933,-0.204 2.509,-0.611 0.577,-0.408 0.919,-1.057 1.029,-1.946 l -2.5,-0.146 c -0.067,0.385 -0.206,0.664 -0.419,0.839 -0.214,0.175 -0.508,0.263 -0.883,0.263 -0.309,0 -0.542,-0.066 -0.698,-0.197 -0.157,-0.131 -0.235,-0.29 -0.235,-0.478 0,-0.137 0.065,-0.26 0.195,-0.369 0.125,-0.114 0.422,-0.219 0.89,-0.317 1.16,-0.251 1.991,-0.504 2.492,-0.759 0.502,-0.257 0.868,-0.575 1.096,-0.954 0.229,-0.379 0.343,-0.803 0.343,-1.272 0,-0.551 -0.152,-1.06 -0.457,-1.524 -0.305,-0.465 -0.73,-0.819 -1.276,-1.059 -0.547,-0.24 -1.236,-0.36 -2.068,-0.36 -1.46,0 -2.472,0.281 -3.033,0.843 -0.563,0.564 -0.881,1.279 -0.955,2.147"
         style="fill:#ffffff;fill-opacity:1;fill-rule:nonzero;stroke:none"
         id="path182" /><path
         d="m 351.83,369.219 h 7.117 v -1.836 h -4.453 v -1.367 h 4.125 v -1.75 h -4.125 v -1.696 h 4.578 v -1.945 h -7.242 z"
         style="fill:#ffffff;fill-opacity:1;fill-rule:nonzero;stroke:none"
         id="path184" /><path
         d="m 199.12,354.867 h 1.123 c 0.122,0 0.357,0.039 0.706,0.117 0.177,0.036 0.321,0.124 0.433,0.269 0.111,0.144 0.167,0.31 0.167,0.497 0,0.276 -0.088,0.489 -0.264,0.637 -0.177,0.148 -0.508,0.222 -0.994,0.222 h -1.171 z m -2.664,-5.117 v 8.594 h 4.427 c 0.821,0 1.448,-0.071 1.882,-0.211 0.434,-0.141 0.784,-0.402 1.049,-0.781 0.267,-0.381 0.399,-0.845 0.399,-1.392 0,-0.477 -0.102,-0.888 -0.306,-1.232 -0.204,-0.346 -0.484,-0.626 -0.841,-0.841 -0.228,-0.137 -0.54,-0.25 -0.936,-0.34 0.316,-0.106 0.546,-0.212 0.69,-0.318 0.097,-0.071 0.239,-0.222 0.424,-0.454 0.185,-0.232 0.309,-0.411 0.371,-0.536 l 1.294,-2.489 h -2.998 l -1.423,2.629 c -0.18,0.341 -0.341,0.561 -0.482,0.664 -0.192,0.133 -0.409,0.199 -0.652,0.199 h -0.234 v -3.492 z"
         style="fill:#ffffff;fill-opacity:1;fill-rule:nonzero;stroke:none"
         id="path186" /><path
         d="m 205.15,358.344 h 7.118 v -1.836 h -4.454 v -1.367 h 4.125 v -1.75 h -4.125 v -1.696 h 4.579 v -1.945 h -7.243 z"
         style="fill:#ffffff;fill-opacity:1;fill-rule:nonzero;stroke:none"
         id="path188" /><path
         d="m 215.912,356.398 v -4.695 h 0.651 c 0.555,0 0.95,0.062 1.184,0.185 0.235,0.123 0.419,0.338 0.551,0.644 0.133,0.307 0.2,0.805 0.2,1.492 0,0.911 -0.149,1.535 -0.446,1.871 -0.297,0.335 -0.79,0.503 -1.478,0.503 z m -2.657,1.946 h 3.945 c 0.778,0 1.405,-0.106 1.884,-0.317 0.479,-0.211 0.874,-0.513 1.187,-0.909 0.312,-0.394 0.539,-0.853 0.68,-1.377 0.14,-0.524 0.211,-1.079 0.211,-1.665 0,-0.918 -0.105,-1.631 -0.314,-2.137 -0.209,-0.505 -0.499,-0.929 -0.87,-1.272 -0.372,-0.342 -0.77,-0.569 -1.196,-0.683 -0.582,-0.156 -1.11,-0.234 -1.582,-0.234 h -3.945 z"
         style="fill:#ffffff;fill-opacity:1;fill-rule:nonzero;stroke:none"
         id="path190" /><path
         d="m 228.048,356.398 v -4.695 h 0.651 c 0.555,0 0.949,0.062 1.184,0.185 0.235,0.123 0.418,0.338 0.552,0.644 0.132,0.307 0.199,0.805 0.199,1.492 0,0.911 -0.149,1.535 -0.446,1.871 -0.297,0.335 -0.79,0.503 -1.478,0.503 z m -2.656,1.946 h 3.944 c 0.777,0 1.405,-0.106 1.884,-0.317 0.479,-0.211 0.874,-0.513 1.187,-0.909 0.312,-0.394 0.539,-0.853 0.68,-1.377 0.141,-0.524 0.211,-1.079 0.211,-1.665 0,-0.918 -0.105,-1.631 -0.314,-2.137 -0.209,-0.505 -0.499,-0.929 -0.87,-1.272 -0.371,-0.342 -0.77,-0.569 -1.196,-0.683 -0.582,-0.156 -1.109,-0.234 -1.582,-0.234 h -3.944 z"
         style="fill:#ffffff;fill-opacity:1;fill-rule:nonzero;stroke:none"
         id="path192" /><path
         d="m 234.086,358.344 h 7.118 v -1.836 h -4.454 v -1.367 h 4.125 v -1.75 h -4.125 v -1.696 h 4.579 v -1.945 h -7.243 z"
         style="fill:#ffffff;fill-opacity:1;fill-rule:nonzero;stroke:none"
         id="path194" /><path
         d="m 245.88,352.842 2.523,0.158 c 0.055,-0.411 0.166,-0.724 0.334,-0.938 0.273,-0.349 0.663,-0.523 1.171,-0.523 0.379,0 0.671,0.089 0.875,0.267 0.205,0.178 0.308,0.384 0.308,0.619 0,0.222 -0.098,0.422 -0.293,0.598 -0.194,0.176 -0.648,0.342 -1.359,0.498 -1.163,0.262 -1.993,0.611 -2.489,1.044 -0.5,0.435 -0.75,0.988 -0.75,1.661 0,0.442 0.128,0.859 0.384,1.253 0.256,0.392 0.64,0.701 1.154,0.926 0.513,0.225 1.217,0.337 2.112,0.337 1.097,0 1.934,-0.204 2.509,-0.611 0.577,-0.408 0.919,-1.057 1.029,-1.946 l -2.5,-0.146 c -0.067,0.385 -0.206,0.664 -0.42,0.839 -0.213,0.175 -0.507,0.263 -0.882,0.263 -0.309,0 -0.542,-0.066 -0.698,-0.197 -0.157,-0.131 -0.235,-0.29 -0.235,-0.478 0,-0.137 0.065,-0.26 0.194,-0.369 0.126,-0.114 0.423,-0.219 0.891,-0.317 1.16,-0.251 1.991,-0.504 2.493,-0.759 0.501,-0.257 0.867,-0.575 1.095,-0.954 0.229,-0.379 0.343,-0.803 0.343,-1.272 0,-0.551 -0.152,-1.06 -0.457,-1.524 -0.304,-0.465 -0.73,-0.819 -1.276,-1.059 -0.547,-0.24 -1.236,-0.36 -2.068,-0.36 -1.46,0 -2.472,0.281 -3.034,0.843 -0.562,0.564 -0.88,1.279 -0.954,2.147"
         style="fill:#ffffff;fill-opacity:1;fill-rule:nonzero;stroke:none"
         id="path196" /><path
         d="m 260,358.594 h 2.649 v -5.121 c 0,-0.508 -0.079,-0.988 -0.238,-1.439 -0.158,-0.451 -0.407,-0.846 -0.744,-1.183 -0.339,-0.338 -0.694,-0.576 -1.065,-0.712 -0.517,-0.192 -1.137,-0.287 -1.86,-0.287 -0.418,0 -0.875,0.029 -1.37,0.087 -0.495,0.059 -0.908,0.175 -1.241,0.349 -0.332,0.174 -0.636,0.421 -0.912,0.741 -0.276,0.321 -0.464,0.651 -0.566,0.991 -0.164,0.546 -0.246,1.031 -0.246,1.453 v 5.121 h 2.648 v -5.241 c 0,-0.469 0.131,-0.835 0.391,-1.098 0.261,-0.264 0.622,-0.396 1.085,-0.396 0.458,0 0.818,0.13 1.078,0.39 0.261,0.259 0.391,0.627 0.391,1.104 z"
         style="fill:#ffffff;fill-opacity:1;fill-rule:nonzero;stroke:none"
         id="path198" /><path
         d="m 266.451,354.93 h 0.651 c 0.511,0 0.871,0.089 1.078,0.266 0.207,0.177 0.31,0.405 0.31,0.682 0,0.269 -0.09,0.497 -0.269,0.685 -0.18,0.187 -0.518,0.281 -1.014,0.281 h -0.756 z m -2.664,3.664 h 4.412 c 0.961,0 1.681,-0.229 2.159,-0.686 0.479,-0.458 0.718,-1.108 0.718,-1.953 0,-0.868 -0.261,-1.546 -0.782,-2.035 -0.522,-0.488 -1.318,-0.732 -2.389,-0.732 h -1.454 V 350 h -2.664 z"
         style="fill:#ffffff;fill-opacity:1;fill-rule:nonzero;stroke:none"
         id="path200" /><path
         d="m 271.861,358.594 h 7.118 v -1.836 h -4.454 v -1.367 h 4.125 v -1.75 h -4.125 v -1.696 h 4.579 V 350 h -7.243 z"
         style="fill:#ffffff;fill-opacity:1;fill-rule:nonzero;stroke:none"
         id="path202" /><path
         d="m 282.63,355.117 h 1.124 c 0.121,0 0.357,0.039 0.706,0.117 0.176,0.036 0.32,0.124 0.432,0.269 0.112,0.144 0.168,0.31 0.168,0.497 0,0.276 -0.088,0.489 -0.265,0.637 -0.176,0.148 -0.507,0.222 -0.994,0.222 H 282.63 Z M 279.966,350 v 8.594 h 4.428 c 0.82,0 1.448,-0.071 1.882,-0.211 0.433,-0.141 0.784,-0.402 1.049,-0.781 0.266,-0.381 0.399,-0.845 0.399,-1.392 0,-0.477 -0.102,-0.888 -0.306,-1.232 -0.204,-0.346 -0.484,-0.626 -0.841,-0.841 -0.228,-0.137 -0.54,-0.25 -0.936,-0.34 0.316,-0.106 0.546,-0.212 0.69,-0.318 0.097,-0.071 0.238,-0.222 0.424,-0.454 0.185,-0.232 0.308,-0.411 0.371,-0.536 L 288.419,350 h -2.998 l -1.422,2.629 c -0.181,0.341 -0.341,0.561 -0.482,0.664 -0.192,0.133 -0.409,0.199 -0.652,0.199 H 282.63 V 350 Z"
         style="fill:#ffffff;fill-opacity:1;fill-rule:nonzero;stroke:none"
         id="path204" /><path
         d="m 288.638,358.594 h 3.492 l 1.346,-5.231 1.339,5.231 h 3.487 V 350 h -2.172 v 6.551 L 294.452,350 h -1.967 l -1.675,6.551 V 350 h -2.172 z"
         style="fill:#ffffff;fill-opacity:1;fill-rule:nonzero;stroke:none"
         id="path206" /><path
         d="m 299.387,358.594 h 7.117 v -1.836 h -4.453 v -1.367 h 4.125 v -1.75 h -4.125 v -1.696 h 4.578 V 350 h -7.242 z"
         style="fill:#ffffff;fill-opacity:1;fill-rule:nonzero;stroke:none"
         id="path208" /><path
         d="m 310.156,355.117 h 1.124 c 0.121,0 0.357,0.039 0.706,0.117 0.176,0.036 0.321,0.124 0.432,0.269 0.112,0.144 0.168,0.31 0.168,0.497 0,0.276 -0.088,0.489 -0.265,0.637 -0.176,0.148 -0.508,0.222 -0.994,0.222 h -1.171 z M 307.492,350 v 8.594 h 4.428 c 0.82,0 1.448,-0.071 1.882,-0.211 0.433,-0.141 0.784,-0.402 1.05,-0.781 0.265,-0.381 0.398,-0.845 0.398,-1.392 0,-0.477 -0.102,-0.888 -0.306,-1.232 -0.204,-0.346 -0.484,-0.626 -0.841,-0.841 -0.228,-0.137 -0.54,-0.25 -0.936,-0.34 0.315,-0.106 0.546,-0.212 0.69,-0.318 0.097,-0.071 0.239,-0.222 0.424,-0.454 0.185,-0.232 0.309,-0.411 0.371,-0.536 L 315.945,350 h -2.998 l -1.423,2.629 c -0.179,0.341 -0.34,0.561 -0.481,0.664 -0.191,0.133 -0.409,0.199 -0.651,0.199 h -0.236 V 350 Z"
         style="fill:#ffffff;fill-opacity:1;fill-rule:nonzero;stroke:none"
         id="path210" /><path
         d="m 321.697,353.516 2.328,-0.704 c -0.156,-0.653 -0.402,-1.198 -0.739,-1.636 -0.336,-0.438 -0.753,-0.768 -1.251,-0.99 -0.498,-0.223 -1.133,-0.334 -1.902,-0.334 -0.935,0 -1.697,0.135 -2.289,0.407 -0.592,0.271 -1.104,0.749 -1.533,1.432 -0.43,0.684 -0.645,1.56 -0.645,2.626 0,1.422 0.378,2.515 1.135,3.28 0.757,0.763 1.827,1.145 3.211,1.145 1.083,0 1.934,-0.219 2.553,-0.656 0.621,-0.438 1.081,-1.109 1.382,-2.016 l -2.343,-0.523 c -0.083,0.263 -0.168,0.454 -0.259,0.576 -0.149,0.203 -0.33,0.36 -0.545,0.47 -0.215,0.11 -0.456,0.165 -0.722,0.165 -0.602,0 -1.063,-0.242 -1.385,-0.728 -0.242,-0.359 -0.363,-0.924 -0.363,-1.694 0,-0.954 0.145,-1.607 0.434,-1.962 0.288,-0.353 0.694,-0.53 1.217,-0.53 0.508,0 0.891,0.142 1.151,0.427 0.26,0.287 0.448,0.701 0.565,1.245"
         style="fill:#ffffff;fill-opacity:1;fill-rule:nonzero;stroke:none"
         id="path212" /><path
         d="m 329.435,353.281 -0.946,3.087 -0.937,-3.087 z m 0.553,-1.859 h -3.009 L 326.556,350 h -2.711 l 3.223,8.594 h 2.907 L 333.196,350 h -2.778 z"
         style="fill:#ffffff;fill-opacity:1;fill-rule:nonzero;stroke:none"
         id="path214" /><path
         d="m 336.134,356.648 v -4.695 h 0.651 c 0.555,0 0.949,0.062 1.184,0.185 0.235,0.123 0.419,0.338 0.552,0.644 0.132,0.307 0.199,0.805 0.199,1.492 0,0.911 -0.149,1.535 -0.446,1.871 -0.297,0.335 -0.79,0.503 -1.477,0.503 z m -2.656,1.946 h 3.944 c 0.777,0 1.405,-0.106 1.884,-0.317 0.479,-0.211 0.875,-0.513 1.187,-0.909 0.313,-0.394 0.539,-0.853 0.68,-1.377 0.14,-0.524 0.211,-1.079 0.211,-1.665 0,-0.918 -0.105,-1.631 -0.314,-2.137 -0.209,-0.505 -0.499,-0.929 -0.87,-1.272 -0.372,-0.342 -0.77,-0.569 -1.196,-0.683 -0.582,-0.156 -1.109,-0.234 -1.582,-0.234 h -3.944 z"
         style="fill:#ffffff;fill-opacity:1;fill-rule:nonzero;stroke:none"
         id="path216" /><path
         d="m 344.501,354.279 c 0,-0.869 0.161,-1.494 0.483,-1.874 0.323,-0.38 0.761,-0.569 1.317,-0.569 0.57,0 1.012,0.185 1.324,0.558 0.313,0.372 0.47,1.04 0.47,2.002 0,0.811 -0.164,1.404 -0.491,1.778 -0.326,0.373 -0.768,0.56 -1.327,0.56 -0.536,0 -0.965,-0.189 -1.29,-0.569 -0.324,-0.38 -0.486,-1.009 -0.486,-1.886 m -2.656,0.012 c 0,1.403 0.39,2.496 1.172,3.278 0.782,0.783 1.871,1.173 3.266,1.173 1.43,0 2.532,-0.384 3.307,-1.152 0.773,-0.769 1.161,-1.845 1.161,-3.229 0,-1.005 -0.17,-1.829 -0.508,-2.471 -0.338,-0.644 -0.826,-1.144 -1.466,-1.501 -0.638,-0.359 -1.435,-0.537 -2.388,-0.537 -0.97,0 -1.773,0.154 -2.408,0.462 -0.635,0.31 -1.15,0.798 -1.544,1.467 -0.395,0.668 -0.592,1.505 -0.592,2.51"
         style="fill:#ffffff;fill-opacity:1;fill-rule:nonzero;stroke:none"
         id="path218" /><path
         d="m 351.115,352.842 2.524,0.158 c 0.054,-0.411 0.166,-0.724 0.334,-0.938 0.273,-0.349 0.663,-0.523 1.171,-0.523 0.378,0 0.67,0.089 0.875,0.267 0.205,0.178 0.307,0.384 0.307,0.619 0,0.222 -0.097,0.422 -0.292,0.598 -0.195,0.176 -0.648,0.342 -1.359,0.498 -1.163,0.262 -1.993,0.611 -2.489,1.044 -0.5,0.435 -0.75,0.988 -0.75,1.661 0,0.442 0.127,0.859 0.383,1.253 0.256,0.392 0.641,0.701 1.155,0.926 0.513,0.225 1.216,0.337 2.111,0.337 1.098,0 1.935,-0.204 2.51,-0.611 0.576,-0.408 0.919,-1.057 1.028,-1.946 l -2.5,-0.146 c -0.066,0.385 -0.206,0.664 -0.419,0.839 -0.213,0.175 -0.508,0.263 -0.883,0.263 -0.308,0 -0.542,-0.066 -0.698,-0.197 -0.156,-0.131 -0.234,-0.29 -0.234,-0.478 0,-0.137 0.064,-0.26 0.194,-0.369 0.125,-0.114 0.422,-0.219 0.891,-0.317 1.16,-0.251 1.991,-0.504 2.493,-0.759 0.501,-0.257 0.866,-0.575 1.095,-0.954 0.228,-0.379 0.342,-0.803 0.342,-1.272 0,-0.551 -0.152,-1.06 -0.457,-1.524 -0.303,-0.465 -0.729,-0.819 -1.276,-1.059 -0.547,-0.24 -1.235,-0.36 -2.067,-0.36 -1.46,0 -2.472,0.281 -3.034,0.843 -0.562,0.564 -0.881,1.279 -0.955,2.147"
         style="fill:#ffffff;fill-opacity:1;fill-rule:nonzero;stroke:none"
         id="path220" /></g></g><rect
     style="fill:none;stroke-width:0.971;stroke-linecap:round"
     id="rect476"
     width="107.10787"
     height="64.264732"
     x="0"
     y="0"
     ry="6.1032906" /></svg>
